<?xml version="1.0" encoding="UTF-8" standalone="no"?>
<!-- Created with Inkscape (http://www.inkscape.org/) -->

<svg
   version="1.1"
   id="svg1"
   width="64"
   height="64"
   viewBox="0 0 64 64"
   xmlns="http://www.w3.org/2000/svg"
   xmlns:svg="http://www.w3.org/2000/svg">
  <defs
     id="defs1" />
  <g
     id="g1">
    <path
       style="fill:#ffffff;fill-opacity:1"
       d="M 32.215441,59.765611 C 32.173251,59.723421 31.335883,59.638636 30.354635,59.57721 23.315825,59.136586 16.789659,56.128167 11.962305,51.098752 3.2206576,41.9912 1.6619516,28.344791 8.1153646,17.418933 c 1.451977,-2.45825 4.0620704,-5.471582 6.3170334,-7.292967 3.919478,-3.1658524 8.578479,-5.2042047 13.6875,-5.9883968 1.958704,-0.3006448 5.769922,-0.3044234 7.78599,-0.00772 12.146745,1.7876326 21.591799,10.9874998 23.64627,23.0324288 0.585591,3.433198 0.434534,7.821421 -0.38251,11.111957 -0.21813,0.87849 -1.027647,3.405267 -1.188877,3.710889 -0.08394,0.159118 0.05394,0.441136 0.561676,1.148813 2.328287,3.245149 2.397206,7.737368 0.160827,10.483037 -0.320857,0.393926 -0.583376,0.739051 -0.583376,0.766944 0,0.02789 0.142043,0.08637 0.315651,0.129938 0.493684,0.123907 1.273689,0.908645 1.504881,1.514015 0.492203,1.288814 0.0064,2.709233 -1.161483,3.395704 l -0.596549,0.35066 -12.94512,0.03405 c -7.119815,0.01873 -12.979642,-4.76e-4 -13.021837,-0.04267 z m 25.779457,-2.178876 c 0.334415,-0.334415 0.315171,-0.696193 -0.05682,-1.068182 L 57.631262,56.211735 H 45.014428 c -11.836323,0 -12.632484,0.01353 -12.86982,0.21875 -0.392085,0.339025 -0.439653,0.696756 -0.142827,1.074109 l 0.261262,0.332141 h 12.740928 c 12.57426,0 12.744197,-0.0033 12.990927,-0.25 z m -28.125,-0.610597 v -0.610597 l -0.71875,-0.08701 C 24.532512,55.719413 19.996204,53.800482 16.369898,50.871857 15.269165,49.982899 13.292439,47.96543 12.477505,46.899235 7.2725326,40.089468 5.8911836,31.115191 8.8314516,23.211735 13.946348,9.4628626 29.833653,3.1578296 42.932398,9.6784396 49.113885,12.75561 53.6657,18.16561 55.631007,24.771208 c 0.606776,2.039434 0.875721,3.787684 0.952891,6.19417 0.09375,2.923445 -0.151346,4.973903 -0.910358,7.616056 l -0.303702,1.057199 0.462899,0.474051 c 0.254594,0.260728 0.498807,0.474051 0.542695,0.474051 0.130663,0 0.860384,-2.507019 1.115369,-3.831946 C 59.129369,28.240606 56.456591,19.53633 50.34912,13.496904 48.820616,11.98543 47.85429,11.195691 46.244898,10.142692 38.0071,4.7528356 27.667495,4.4498886 19.11061,9.3476666 11.880499,13.486028 7.1297796,20.882887 6.2322566,29.399235 c -0.173762,1.648781 -0.07723,4.750392 0.200362,6.4375 0.681469,4.141778 2.343758,8.074058 4.8398784,11.449131 1.129231,1.526863 3.552443,3.997895 4.973043,5.07118 3.588471,2.711146 7.548615,4.374314 12.249358,5.144446 0.171875,0.02816 0.551562,0.05886 0.84375,0.06822 l 0.53125,0.01702 z m 2.037903,-2.593973 c 0.04376,-0.04376 -0.160578,-0.346672 -0.454092,-0.67313 -1.215211,-1.351607 -1.750067,-2.914629 -1.752818,-5.1223 -0.0021,-1.669892 0.199764,-2.581677 0.86699,-3.916411 1.360762,-2.722101 5.092899,-6.489488 10.231345,-10.327981 1.518538,-1.134369 1.712321,-1.31828 1.511649,-1.434639 -1.399391,-0.811431 -2.528376,-2.110395 -3.066726,-3.528447 -0.348224,-0.917251 -0.468386,-2.620397 -0.250981,-3.557368 0.430633,-1.855945 1.656334,-3.405075 3.37673,-4.267758 1.56044,-0.782475 2.555727,-0.744647 2.880465,0.109479 0.163496,0.430027 -0.04004,0.763939 -0.880132,1.44393 -1.701571,1.377287 -1.917147,3.658936 -0.498378,5.274823 0.678381,0.772634 1.516079,1.135471 2.623045,1.136137 1.183044,7.11e-4 1.922563,-0.315697 2.76148,-1.181518 0.497068,-0.513008 0.683418,-0.625247 1.038097,-0.625247 0.594647,0 1.002319,0.506776 0.902499,1.121893 -0.209742,1.29249 -1.662921,3.180223 -2.985205,3.877892 -0.325529,0.171757 -0.591871,0.343707 -0.591871,0.382111 0,0.0384 0.717188,0.60717 1.59375,1.263924 0.876562,0.656754 2.251425,1.740299 3.055249,2.407876 0.803824,0.667578 1.506074,1.213174 1.560555,1.212436 0.149639,-0.002 0.503005,-1.523344 0.738467,-3.179266 0.301307,-2.118981 0.191902,-5.455228 -0.247031,-7.533053 C 52.549661,18.880889 46.415691,12.262293 38.244898,9.9194446 34.847749,8.9453646 30.722949,8.8273406 27.182398,9.6029096 18.619332,11.478677 11.76184,18.336169 9.8860726,26.899235 c -0.425685,1.943294 -0.5551,3.452233 -0.48089,5.607034 0.0799,2.320057 0.315229,3.809545 0.9165044,5.800959 1.091866,3.61624 2.822433,6.544816 5.472825,9.261462 2.65077,2.717033 5.416654,4.479838 8.94309,5.699776 1.179633,0.408083 3.632597,0.977323 4.757296,1.103988 0.763967,0.08604 2.330271,0.09234 2.412903,0.0097 z m -8.566244,-13.88918 c -0.293186,-0.33388 -0.37609,-0.741111 -0.215343,-1.057778 0.07984,-0.157285 1.40682,-1.554034 2.948841,-3.103888 l 2.803674,-2.817917 -0.191915,-0.459319 C 28.577648,32.792814 28.495425,32.229224 28.496119,31.747 c 0.0021,-1.437191 0.707243,-2.568294 2.014003,-3.23048 l 0.609776,-0.308996 v -6.416021 c 0,-6.309168 0.0043,-6.419883 0.256217,-6.647895 0.371106,-0.335846 1.090775,-0.306239 1.384888,0.05698 0.221719,0.273811 0.233895,0.621953 0.233895,6.687389 v 6.398541 l 0.45654,0.165087 c 0.650905,0.23537 1.53227,1.092724 1.873679,1.822635 0.386524,0.826362 0.402088,2.125295 0.0352,2.9375 -0.313086,0.693093 -1.014351,1.436739 -1.677916,1.779321 -0.702875,0.362877 -1.992556,0.438218 -2.827353,0.16517 l -0.651934,-0.213237 -2.886334,2.884373 c -2.691865,2.690029 -2.916547,2.884368 -3.334735,2.884368 -0.270538,0 -0.524594,-0.08677 -0.640488,-0.21875 z m 9.541106,-7.314992 c 1.106234,-0.739012 1.080932,-2.156693 -0.05081,-2.846758 -1.370735,-0.83579 -3.026002,0.822951 -2.241138,2.245842 0.463555,0.840387 1.519179,1.117157 2.291945,0.600916 z m 22.389493,20.761235 c 0.802238,-0.376009 1.850655,-1.293823 2.315121,-2.026724 1.02854,-1.622977 1.149609,-4.198805 0.284298,-6.04861 -1.291844,-2.761618 -5.3812,-6.774922 -11.014319,-10.809481 -0.935078,-0.669723 -1.772447,-1.217678 -1.860819,-1.217678 -0.211154,0 -3.05936,2.038902 -4.876539,3.490894 -4.347316,3.473663 -7.199407,6.574029 -8.101031,8.806226 -0.41696,1.032289 -0.522731,3.029749 -0.222553,4.20288 0.415214,1.622706 1.412221,2.808472 3.011084,3.581161 l 0.875,0.422865 9.4375,-0.03326 9.4375,-0.03326 z m -9.45461,-22.461074 c -0.03691,-0.05972 -0.282098,-0.142959 -0.544864,-0.184977 -0.75359,-0.120504 -1.987496,-0.803059 -2.650731,-1.466294 -0.744209,-0.744209 -1.326561,-1.89216 -1.549162,-3.053757 l -0.167466,-0.873891 -0.09637,0.480705 c -0.053,0.264388 -0.06812,0.832616 -0.03359,1.262729 0.139034,1.732069 1.370961,3.21289 3.13029,3.762722 0.593318,0.185426 2.014961,0.239531 1.911893,0.07276 z"
       id="path1" />
  </g>
</svg>
